<svg xmlns="http://www.w3.org/2000/svg" version="1.1" xmlns:xlink="http://www.w3.org/1999/xlink" xmlns:svgjs="http://svgjs.dev/svgjs" width="1000" height="204" viewBox="0 0 1000 204"><g transform="matrix(1,0,0,1,-0.6060582537605796,-0.5185343858034486)"><svg viewBox="0 0 396 81" data-background-color="#ffffff" preserveAspectRatio="xMidYMid meet" height="204" width="1000" xmlns="http://www.w3.org/2000/svg" xmlns:xlink="http://www.w3.org/1999/xlink"><g id="tight-bounds" transform="matrix(1,0,0,1,0.2399990684891975,0.20588865318666194)"><svg viewBox="0 0 395.5199999999999 80.58821669329076" height="80.58821669329076" width="395.5199999999999"><g><svg viewBox="0 0 506.398599243694 103.18001630519247" height="80.58821669329076" width="395.5199999999999"><g><rect width="3.451316930409998" height="89.5919099610933" x="404.55486107437173" y="6.794053172049587" fill="#3d3839" opacity="1" stroke-width="0" stroke="transparent" fill-opacity="1" class="rect-o-0" data-fill-palette-color="primary" rx="1%" id="o-0" data-palette-color="#3d3839"></rect></g><g transform="matrix(1,0,0,1,0,14.260045668807358)"><svg viewBox="0 0 395.52 74.65992496757775" height="74.65992496757775" width="395.52"><g id="textblocktransform"><svg viewBox="0 0 395.52 74.65992496757775" height="74.65992496757775" width="395.52" id="textblock"><g><svg viewBox="0 0 395.52 38.27098508265017" height="38.27098508265017" width="395.52"><g transform="matrix(1,0,0,1,0,0)"><svg width="395.52" viewBox="4.949999809265137 -35.5 372.0099792480469 36" height="38.27098508265017" data-palette-color="#3d3839"><path d="M9.25-0.05L9.25-1.5 28.95-1.5 28.95-31.45 17.7-7.35 6.45-31.5 6.45 0 4.95-0.05 4.95-35.05 6.45-35.05 17.7-10.9 28.95-35 30.45-35.05 30.45 0 9.25-0.05ZM41.25 0L41.25-1.5 59.65-1.5 49.05-30.65 37.9 0 36.3 0 49.05-35.05 61.8 0 41.25 0ZM84.45-35L75.65-18.45 85.45 0 83.75 0 74.8-16.85 65.85 0 64.15 0 73.95-18.45 65.15-35 66.85-35 74.8-20.05 82.75-35 84.45-35ZM93.34-35L93.34 0 91.84 0 91.84-35 93.34-35ZM107.54-0.05L107.54-1.5 127.24-1.5 127.24-31.45 115.99-7.35 104.74-31.5 104.74 0 103.24-0.05 103.24-35.05 104.74-35.05 115.99-10.9 127.24-35 128.74-35.05 128.74 0 107.54-0.05ZM140.14-35L140.14 0 138.64 0 138.64-35 140.14-35ZM151.54-1.5L170.94-1.5 170.94 0 150.04 0 150.04-35 151.54-35 151.54-1.5ZM178.13-35L178.13 0 176.63 0 176.63-35 178.13-35ZM205.98-19.8L205.98-18.3 191.13-18.3 206.43-33.5 189.53-33.5 189.53-1.5 208.93-1.5 208.93 0 188.03 0 188.03-35 210.08-35 194.78-19.8 205.98-19.8ZM220.73 0L220.73-1.5 236.23-1.5 218.33-32.45 218.33 0 216.83 0 216.83-35 218.58-35 237.28-2.65 237.28-35 238.78-35 238.78 0 220.73 0ZM263.42-35L264.92-35 264.92 0 263.42 0 263.42-35ZM283.32-35L285.47-35 268.67-18.3 287.07 0 284.92 0 266.52-18.3 283.32-35ZM292.97 0L292.97-1.5 311.37-1.5 300.77-30.65 289.62 0 288.02 0 300.77-35.05 313.52 0 292.97 0ZM318.32-26.35L318.32-26.35Q318.32-31.2 320.77-33.35 323.22-35.5 328.72-35.5L328.72-35.5Q332.57-35.5 334.92-33.5 337.27-31.5 338.32-27.4L338.32-27.4 333.67-23.9 331.22-23.9 336.62-27.95Q335.57-31.3 333.59-32.65 331.62-34 328.72-34L328.72-34Q326.72-34 325.34-33.75 323.97-33.5 322.59-32.77 321.22-32.05 320.52-30.45 319.82-28.85 319.82-26.35L319.82-26.35Q319.82-24.15 321.84-22.45 323.87-20.75 326.77-19.55 329.67-18.35 332.59-17.1 335.52-15.85 337.54-13.9 339.57-11.95 339.57-9.4L339.57-9.4Q339.57-4.4 337.09-1.95 334.62 0.5 328.62 0.5L328.62 0.5Q323.72 0.5 320.92-1.48 318.12-3.45 317.07-7.6L317.07-7.6 318.47-8.2Q319.47-4.15 321.89-2.58 324.32-1 328.62-1L328.62-1Q333.42-1 335.74-2.85 338.07-4.7 338.07-9.4L338.07-9.4Q338.07-11.6 336.04-13.3 334.02-15 331.09-16.2 328.17-17.4 325.27-18.65 322.37-19.9 320.34-21.85 318.32-23.8 318.32-26.35ZM346.37-26.35L346.37-26.35Q346.37-31.2 348.82-33.35 351.27-35.5 356.77-35.5L356.77-35.5Q360.62-35.5 362.97-33.5 365.32-31.5 366.37-27.4L366.37-27.4 361.72-23.9 359.27-23.9 364.67-27.95Q363.62-31.3 361.64-32.65 359.67-34 356.77-34L356.77-34Q354.77-34 353.39-33.75 352.02-33.5 350.64-32.77 349.27-32.05 348.57-30.45 347.87-28.85 347.87-26.35L347.87-26.35Q347.87-24.15 349.89-22.45 351.92-20.75 354.82-19.55 357.72-18.35 360.64-17.1 363.57-15.85 365.59-13.9 367.62-11.95 367.62-9.4L367.62-9.4Q367.62-4.4 365.14-1.95 362.67 0.5 356.67 0.5L356.67 0.5Q351.77 0.5 348.97-1.48 346.17-3.45 345.12-7.6L345.12-7.6 346.52-8.2Q347.52-4.15 349.94-2.58 352.37-1 356.67-1L356.67-1Q361.47-1 363.79-2.85 366.12-4.7 366.12-9.4L366.12-9.4Q366.12-11.6 364.09-13.3 362.07-15 359.14-16.2 356.22-17.4 353.32-18.65 350.42-19.9 348.39-21.85 346.37-23.8 346.37-26.35ZM376.96-35L376.96 0 375.46 0 375.46-35 376.96-35Z" opacity="1" transform="matrix(1,0,0,1,0,0)" fill="#3d3839" class="undefined-text-0" data-fill-palette-color="primary" id="text-0"></path></svg></g></svg></g><g transform="matrix(1,0,0,1,163.31020800000002,47.30584615702189)"><svg viewBox="0 0 232.20979199999996 27.354078810555865" height="27.354078810555865" width="232.20979199999996"><g transform="matrix(1,0,0,1,0,0)"><svg width="232.20979199999996" viewBox="1.0499999523162842 -39.869998931884766 434.7799987792969 51.220001220703125" height="27.354078810555865" data-palette-color="#3f3f3f"><path d="M1.64-1.78L1.64-1.78Q1.95-2.42 2.29-3.21 2.64-4 2.93-4.93L2.93-4.93 3.59-6.54Q3.15-7.2 2.7-7.97 2.25-8.74 1.88-9.55 1.51-10.35 1.28-11.16 1.05-11.96 1.05-12.72L1.05-12.72Q1.05-12.77 1.43-12.81 1.81-12.84 2.38-12.87 2.95-12.89 3.63-12.9 4.3-12.92 4.87-12.93 5.44-12.94 5.82-12.95 6.2-12.96 6.2-12.96L6.2-12.96Q6.76-14.43 7.3-15.75 7.84-17.07 8.37-18.41 8.91-19.75 9.45-21.15 9.99-22.56 10.52-24.17L10.52-24.17Q11.55-27.2 12.52-29.49 13.5-31.79 14.36-33.76L14.36-33.76Q14.45-34.01 14.69-34.22 14.92-34.42 15.19-34.57 15.45-34.72 15.71-34.81 15.97-34.91 16.11-34.96L16.11-34.96Q16.21-34.99 16.86-35.18 17.5-35.38 18.33-35.6 19.17-35.82 19.98-35.99 20.8-36.16 21.29-36.16L21.29-36.16 21.73-36.16Q22.12-36.16 22.47-35.97 22.83-35.79 22.95-35.25L22.95-35.25Q24.12-32.25 25.45-28.7 26.78-25.15 28.05-20.87L28.05-20.87Q28.74-18.58 29.39-16.53 30.05-14.48 30.71-12.52 31.37-10.57 32.04-8.62 32.71-6.67 33.42-4.59L33.42-4.59Q33.64-3.71 33.87-3.2 34.11-2.69 34.3-2.39 34.5-2.1 34.62-1.97 34.74-1.83 34.74-1.68L34.74-1.68Q34.74-1.54 34.28-1.39L34.28-1.39 29.03 0.32Q28.44 0.54 27.83 0.76 27.22 0.98 26.68 1.15 26.15 1.32 25.74 1.43 25.34 1.54 25.17 1.54L25.17 1.54 25.02 1.54Q24.68 1.54 24.54 1.33 24.39 1.12 24.34 0.93L24.34 0.93Q24.1 0.12 23.85-0.52 23.61-1.17 23.38-1.82 23.14-2.47 22.91-3.2 22.68-3.93 22.46-4.93L22.46-4.93Q22.41-5.05 22.19-5.14 21.97-5.22 21.67-5.27 21.36-5.32 21.02-5.33 20.68-5.35 20.39-5.35L20.39-5.35Q19.46-5.35 18.88-5.33 18.31-5.32 17.87-5.31 17.43-5.3 17.03-5.29 16.63-5.27 16.04-5.27L16.04-5.27Q15.33-5.27 14.59-5.29 13.84-5.3 13.23-5.32L13.23-5.32 11.84-5.37Q11.21-3.61 10.57-2.08 9.94-0.54 9.2 1.1L9.2 1.1Q9.16 1.29 8.97 1.42 8.79 1.54 8.59 1.54L8.59 1.54Q8.45 1.54 8.42 1.51L8.42 1.51Q6.05 0.66 4.44-0.17 2.83-1 1.64-1.78ZM18.09-23.73L18.09-23.73Q17.5-21.56 16.93-19.79 16.36-18.02 15.88-16.65 15.41-15.28 15.06-14.34 14.72-13.4 14.58-12.89L14.58-12.89 14.58-12.67Q14.58-12.52 14.55-12.48L14.55-12.48 20.41-12.48Q20.14-13.67 19.84-14.89 19.53-16.11 19.24-17.46 18.95-18.8 18.65-20.34 18.36-21.88 18.09-23.73ZM68.77-14.43L68.77-32.71Q68.96-33.52 69.11-33.89 69.26-34.25 69.75-34.38L69.75-34.38 76.07-35.86Q76.36-35.96 76.7-35.96L76.7-35.96Q77.02-35.96 77.17-35.74 77.31-35.52 77.31-34.91L77.31-34.91Q77.17-34.33 77.07-33.12 76.97-31.91 76.92-30.47 76.87-29.03 76.85-27.58 76.83-26.12 76.83-25.05L76.83-25.05 76.83-23.71Q76.83-22.19 76.8-20.41 76.78-18.63 76.74-16.8 76.7-14.97 76.66-13.18 76.61-11.4 76.56-9.84L76.56-9.84 76.41-5.66Q76.39-5.54 76.39-5.44 76.39-5.35 76.39-5.25L76.39-5.25 76.39-4.88Q76.39-4.47 76.4-4.19 76.41-3.91 76.41-3.69L76.41-3.69Q76.41-3.44 76.37-3.25 76.34-3.05 76.19-2.87 76.04-2.69 75.79-2.49 75.53-2.29 75.09-2L75.09-2Q74.85-1.83 74.29-1.5 73.73-1.17 73.04-0.76 72.36-0.34 71.63 0.1 70.89 0.54 70.28 0.89 69.67 1.25 69.29 1.46 68.92 1.68 68.92 1.68L68.92 1.68 57.59-15.75 56.56-1.46Q56.54-1.27 56.48-1.05 56.42-0.83 56.15-0.71L56.15-0.71Q55.93-0.61 55.39-0.4 54.85-0.2 54.13 0.07 53.41 0.34 52.62 0.62 51.83 0.9 51.12 1.14 50.41 1.37 49.86 1.51 49.31 1.66 49.12 1.66L49.12 1.66Q48.75 1.66 48.51 1.46 48.26 1.27 48.26 0.76L48.26 0.76Q48.51-2.29 48.82-5.9 49.14-9.5 49.43-13.28 49.73-17.07 49.98-20.84 50.24-24.61 50.41-28L50.41-28Q50.41-28.1 50.1-28.65 49.8-29.2 49.42-29.85 49.04-30.49 48.74-31.07 48.43-31.64 48.43-31.79L48.43-31.79Q48.43-31.96 48.62-32.1 48.8-32.25 49.21-32.5L49.21-32.5 55.73-36.18Q55.81-36.18 55.94-36.21 56.07-36.23 56.17-36.23L56.17-36.23Q56.44-36.23 56.6-36.17 56.76-36.11 56.93-35.79L56.93-35.79 68.77-14.43ZM95.35-27.25L95.35-27.25Q97.67-27.25 99.57-26.38 101.46-25.51 102.81-24.13 104.17-22.75 104.9-21.04 105.63-19.34 105.63-17.63L105.63-17.63Q105.63-16.11 104.7-14.59 103.78-13.06 102.1-11.84 100.43-10.62 98.09-9.86 95.74-9.11 92.94-9.11L92.94-9.11Q91.47-9.11 89.86-9.4L89.86-9.4Q89.96-8.35 90.47-7.59 90.98-6.84 91.76-6.35 92.55-5.86 93.53-5.63 94.52-5.4 95.57-5.4L95.57-5.4Q96.75-5.4 97.83-5.6 98.92-5.81 99.92-6.15 100.92-6.49 101.85-6.91 102.78-7.32 103.61-7.74L103.61-7.74Q103.83-7.79 103.98-7.82 104.14-7.86 104.29-7.86L104.29-7.86Q104.29-7.86 104.28-7.47 104.26-7.08 104.26-6.37 104.26-5.66 104.25-4.66 104.24-3.66 104.22-2.44L104.22-2.44Q104.29-2.32 104.31-2.2 104.34-2.08 104.34-2L104.34-2Q104.34-1.71 103.8-1.37 103.26-1.03 102.4-0.66 101.53-0.29 100.42 0.05 99.31 0.39 98.16 0.67 97.01 0.95 95.94 1.11 94.87 1.27 94.06 1.27L94.06 1.27Q91.42 1.27 88.95 0.35 86.47-0.56 84.55-2.27 82.63-3.98 81.49-6.42 80.34-8.86 80.34-11.91L80.34-11.91Q80.34-15.11 81.44-17.91 82.54-20.7 84.53-22.78 86.52-24.85 89.27-26.05 92.03-27.25 95.35-27.25ZM95.06-20.75L95.06-20.75Q94.06-20.75 93.22-20.32 92.38-19.9 91.68-19.1 90.98-18.31 90.47-17.2 89.96-16.09 89.64-14.75L89.64-14.75Q92.16-15.19 93.82-15.67 95.48-16.16 96.48-16.66 97.48-17.16 97.89-17.66 98.31-18.16 98.31-18.63L98.31-18.63Q98.31-19.07 97.98-19.46 97.65-19.85 97.16-20.14 96.67-20.43 96.1-20.59 95.52-20.75 95.06-20.75ZM119.57-10.11L123.4-24.85Q123.48-25.12 123.82-25.2L123.82-25.2Q125.8-25.63 127.87-26.1 129.95-26.56 131.85-27.25L131.85-27.25Q132.19-27.25 132.19-27L132.19-27 134.68-10.35 139.35-27Q139.44-27.25 139.71-27.25L139.71-27.25Q139.78-27.25 139.81-27.23 139.83-27.22 139.91-27.22L139.91-27.22Q141.74-26.51 143.67-26.06 145.6-25.61 147.5-25.2L147.5-25.2Q147.96-25.1 147.96-24.66L147.96-24.66Q147.96-24.34 147.67-23.68L147.67-23.68 139.81-1.9Q139.61-1.49 139.47-1.21 139.32-0.93 139.17-0.77 139.03-0.61 138.86-0.52 138.69-0.44 138.44-0.39L138.44-0.39Q136.59 0 134.68 0.46 132.78 0.93 130.73 1.64L130.73 1.64Q130.68 1.64 130.65 1.65 130.63 1.66 130.61 1.66L130.61 1.66 130.43 1.66Q130.31 1.66 130.24 1.57 130.17 1.49 130.14 1.42L130.14 1.42Q129.87 0.37 129.53-1.2 129.19-2.76 128.8-4.66 128.41-6.57 127.97-8.74 127.53-10.91 127.07-13.21L127.07-13.21 123.96-2.29Q123.84-1.86 123.71-1.57 123.57-1.29 123.4-1.14 123.23-0.98 123.04-0.9 122.84-0.83 122.6-0.78L122.6-0.78Q120.74-0.42 118.84 0.06 116.93 0.54 114.88 1.25L114.88 1.25Q114.83 1.25 114.81 1.26 114.78 1.27 114.76 1.27L114.76 1.27 114.59 1.27Q114.47 1.27 114.38 1.18 114.3 1.1 114.3 1.03L114.3 1.03Q113.95-0.05 113.52-1.7 113.08-3.34 112.58-5.38 112.07-7.42 111.54-9.74 111-12.06 110.44-14.45 109.88-16.85 109.33-19.2 108.78-21.56 108.27-23.68L108.27-23.68Q108.1-24.07 108.07-24.33 108.05-24.58 108.05-24.76L108.05-24.76Q108.05-25.1 108.44-25.2L108.44-25.2Q110.34-25.61 112.39-26.06 114.44-26.51 116.27-27.22L116.27-27.22Q116.35-27.25 116.49-27.25L116.49-27.25Q116.81-27.25 116.84-27L116.84-27 119.57-10.11ZM190.37-17.5L195.18-33.13Q195.3-33.57 195.44-33.85 195.59-34.13 196.1-34.25L196.1-34.25 203.31-35.91Q203.35-35.91 203.43-35.94 203.5-35.96 203.55-35.96L203.55-35.96Q203.89-35.96 204.03-35.67 204.16-35.38 204.16-35.11L204.16-35.11Q204.16-35.06 204.15-34.91 204.14-34.77 204.11-34.72L204.11-34.72 194-4Q193.61-3 193.36-2.38 193.1-1.76 192.84-1.35 192.59-0.95 192.26-0.68 191.93-0.42 191.38-0.15 190.83 0.12 190 0.48 189.17 0.83 187.9 1.44L187.9 1.44Q187.46 1.66 187.22 1.66L187.22 1.66Q186.83 1.66 186.63 1.37 186.44 1.07 186.31 0.71L186.31 0.71 182.14-14.16 176.91-3.39Q176.79-3.1 176.35-2.61 175.91-2.12 175.36-1.61 174.81-1.1 174.26-0.62 173.72-0.15 173.37 0.15L173.37 0.15Q173.06 0.42 172.7 0.68 172.35 0.95 171.98 1.17 171.62 1.39 171.29 1.53 170.96 1.66 170.66 1.66L170.66 1.66Q170.03 1.66 169.83 0.95L169.83 0.95 160.36-32.45Q160.31-32.64 160.25-32.84 160.19-33.03 160.19-33.2L160.19-33.2Q160.19-33.81 160.48-34.23 160.78-34.64 161.51-34.94 162.24-35.23 163.46-35.41 164.68-35.6 166.56-35.72L166.56-35.72Q167.44-35.84 168.04-35.89 168.64-35.94 169.05-35.94L169.05-35.94Q169.76-35.94 169.98-35.72 170.2-35.5 170.37-34.99L170.37-34.99 175.4-15.63 179.57-22.8 177.89-30.15Q177.74-30.74 177.77-31.03L177.77-31.03Q177.77-31.59 178.06-31.93 178.35-32.28 179.04-32.5 179.72-32.71 180.83-32.89 181.94-33.06 183.55-33.28L183.55-33.28Q184.26-33.37 184.78-33.42 185.29-33.47 185.65-33.47L185.65-33.47Q186.39-33.47 186.65-33.25 186.92-33.03 187.05-32.54L187.05-32.54 190.37-17.5ZM230.28-27.66L227.77-4.91Q227.74-4.81 227.74-4.72 227.74-4.64 227.74-4.57L227.74-4.57Q227.74-3.96 227.94-3.55 228.13-3.15 228.36-2.89 228.6-2.64 228.79-2.48 228.99-2.32 228.99-2.2L228.99-2.2Q228.99-1.86 228.25-1.56L228.25-1.56 221.69 1.25Q221.66 1.27 221.52 1.27L221.52 1.27Q221.32 1.27 221.13 0.93 220.93 0.59 220.75 0.06 220.56-0.46 220.4-1.06 220.25-1.66 220.12-2.17L220.12-2.17Q218.59-0.39 216.8 0.44 215.02 1.27 213.26 1.27L213.26 1.27Q211.21 1.27 209.26 0.37 207.31-0.54 205.79-2.21 204.28-3.88 203.36-6.25 202.45-8.62 202.45-11.57L202.45-11.57Q202.45-15.06 203.46-17.94 204.47-20.83 206.21-22.9 207.94-24.98 210.25-26.11 212.56-27.25 215.14-27.25L215.14-27.25Q216.97-27.25 218.61-26.5 220.25-25.76 221.71-24.58L221.71-24.58Q221.86-25.32 221.88-25.76 221.91-26.2 221.99-26.44 222.08-26.68 222.32-26.77 222.57-26.86 223.13-26.9L223.13-26.9Q224.88-27.15 226.63-27.36 228.38-27.56 230.28-27.66L230.28-27.66ZM219.44-6.88L220.47-14.11Q220.71-15.5 220.8-16.74 220.88-17.97 220.93-18.99L220.93-18.99Q220.54-19.29 220.09-19.6 219.64-19.92 219.11-20.2 218.59-20.48 218.01-20.65 217.44-20.83 216.8-20.83L216.8-20.83Q215.49-20.83 214.59-19.97 213.7-19.12 213.15-17.87 212.6-16.63 212.37-15.23 212.14-13.84 212.14-12.77L212.14-12.77Q212.14-8.91 213.15-7.12 214.17-5.32 215.97-5.32L215.97-5.32Q216.71-5.32 217.61-5.74 218.51-6.15 219.44-6.88L219.44-6.88ZM248.88-0.95L243.51 11.13Q243.46 11.23 243.4 11.29 243.34 11.35 243.19 11.35L243.19 11.35Q243.05 11.35 242.97 11.33L242.97 11.33Q242.09 11.01 241.31 10.79 240.53 10.57 239.76 10.39 238.99 10.21 238.19 10.05 237.38 9.89 236.48 9.69L236.48 9.69Q236.23 9.64 236.1 9.53 235.97 9.42 235.97 9.16L235.97 9.16Q235.97 9.08 236.05 8.8 236.14 8.52 236.48 7.65 236.82 6.79 237.53 5.14 238.24 3.49 239.48 0.71L239.48 0.71Q239.12-0.51 238.65-2.22 238.19-3.93 237.66-5.96 237.14-7.98 236.58-10.24 236.02-12.5 235.44-14.81 234.87-17.11 234.29-19.37 233.72-21.63 233.18-23.68L233.18-23.68Q233.01-24.07 232.99-24.33 232.96-24.58 232.96-24.76L232.96-24.76Q232.96-25.1 233.35-25.2L233.35-25.2Q235.26-25.61 237.31-26.06 239.36-26.51 241.19-27.22L241.19-27.22Q241.26-27.25 241.41-27.25L241.41-27.25Q241.73-27.25 241.75-27L241.75-27 244.73-10.6Q244.83-10.89 245.11-11.66 245.39-12.43 245.77-13.5 246.15-14.58 246.61-15.87 247.07-17.16 247.56-18.51 248.05-19.85 248.53-21.18 249-22.51 249.42-23.66 249.83-24.8 250.14-25.68 250.44-26.56 250.61-27L250.61-27Q250.71-27.25 250.98-27.25L250.98-27.25Q251.05-27.25 251.08-27.23 251.1-27.22 251.18-27.22L251.18-27.22Q253.01-26.51 254.94-26.06 256.86-25.61 258.77-25.2L258.77-25.2Q259.23-25.1 259.23-24.66L259.23-24.66Q259.23-24.34 258.94-23.68L258.94-23.68 248.88-0.95ZM284.74 1.27L284.74 1.27Q281.3 1.27 278.7 0.15 276.1-0.98 274.34-2.84 272.58-4.71 271.7-7.14 270.82-9.57 270.82-12.18L270.82-12.18Q270.82-14.79 271.68-17.15 272.53-19.51 274.07-21.37 275.61-23.24 277.76-24.5 279.91-25.76 282.49-26.2L282.49-26.2Q282.89-26.22 282.89-26.37L282.89-26.37Q282.89-26.64 282.82-26.87 282.76-27.1 282.76-27.27L282.76-27.27Q282.76-27.54 282.86-27.64 282.96-27.73 283.08-27.73L283.08-27.73Q287.74-27.73 291.02-26.67 294.29-25.61 296.34-23.78 298.39-21.95 299.32-19.46 300.24-16.97 300.24-14.11L300.24-14.11Q300.24-10.47 299.02-7.62 297.8-4.76 295.69-2.78 293.58-0.81 290.76 0.23 287.94 1.27 284.74 1.27ZM280.22-12.45L280.22-12.45Q280.22-11.13 280.5-9.84 280.79-8.54 281.43-7.5 282.08-6.45 283.13-5.8 284.18-5.15 285.74-5.15L285.74-5.15Q286.86-5.2 287.71-5.65 288.55-6.1 289.16-6.82 289.77-7.54 290.17-8.45 290.58-9.35 290.81-10.31 291.04-11.28 291.14-12.21 291.23-13.13 291.23-13.89L291.23-13.89Q291.23-15.16 290.86-16.38 290.48-17.6 289.75-18.53 289.01-19.46 287.93-20.03 286.84-20.61 285.42-20.61L285.42-20.61Q283.96-20.61 282.96-19.74 281.96-18.87 281.36-17.6 280.76-16.33 280.49-14.93 280.22-13.53 280.22-12.45ZM306.1 0.37L306.1 0.37Q306.12 0.1 306.21-0.79 306.3-1.68 306.42-3.05 306.54-4.42 306.7-6.19 306.86-7.96 307.05-10 307.25-12.04 307.46-14.26 307.66-16.48 307.88-18.75L307.88-18.75 304.64-18.75Q303.32-18.75 302.73-18.86 302.15-18.97 302.15-19.31L302.15-19.31Q302.15-19.41 302.39-19.84 302.63-20.26 303.01-20.86 303.39-21.46 303.83-22.14 304.27-22.83 304.67-23.43 305.08-24.02 305.37-24.46 305.66-24.9 305.73-25L305.73-25 308.71-25 309.2-28.88Q309.54-31.96 310.43-34.06 311.33-36.16 312.66-37.45 313.99-38.75 315.7-39.31 317.4-39.87 319.36-39.87L319.36-39.87Q321.31-39.87 323.42-39.39 325.53-38.92 327.68-38.09L327.68-38.09Q328.15-37.89 328.38-37.76 328.61-37.62 328.61-37.4L328.61-37.4Q328.61-37.21 328.44-36.89L328.44-36.89Q327.66-35.38 327.28-34.45 326.9-33.52 326.68-32.98 326.46-32.45 326.32-32.26 326.17-32.08 325.88-32.08L325.88-32.08Q325.73-32.08 325.57-32.15 325.41-32.23 325.19-32.32L325.19-32.32Q324.34-32.64 323.47-32.9 322.6-33.15 321.82-33.15L321.82-33.15Q320.72-33.15 319.93-32.47 319.14-31.79 318.67-29.88L318.67-29.88Q318.41-28.78 318.23-27.51 318.06-26.25 317.94-25L317.94-25 324.31-25Q324.51-25 324.69-24.87 324.87-24.73 324.87-24.41L324.87-24.41Q324.87-24.29 324.58-23.54 324.29-22.78 323.75-21.56L323.75-21.56 322.87-19.58Q322.7-19.21 322.52-19.04 322.34-18.87 321.77-18.82L321.77-18.82 317.55-18.82Q317.28-16.28 317.04-13.79 316.79-11.3 316.57-9.12 316.35-6.93 316.18-5.24 316.01-3.54 315.91-2.61L315.91-2.61Q315.89-2.54 315.89-2.34L315.89-2.34Q315.89-2.25 315.9-2.17 315.91-2.1 315.91-2.05L315.91-2.05Q315.91-1.83 315.76-1.7 315.6-1.56 314.94-1.39L314.94-1.39 308.52 0.88Q308.25 0.98 307.81 1.12 307.37 1.27 306.95 1.27L306.95 1.27Q306.54 1.27 306.32 1.07 306.1 0.88 306.1 0.37ZM366.45-17.5L371.26-33.13Q371.38-33.57 371.53-33.85 371.67-34.13 372.18-34.25L372.18-34.25 379.39-35.91Q379.44-35.91 379.51-35.94 379.58-35.96 379.63-35.96L379.63-35.96Q379.97-35.96 380.11-35.67 380.24-35.38 380.24-35.11L380.24-35.11Q380.24-35.06 380.23-34.91 380.22-34.77 380.19-34.72L380.19-34.72 370.08-4Q369.69-3 369.44-2.38 369.18-1.76 368.93-1.35 368.67-0.95 368.34-0.68 368.01-0.42 367.46-0.15 366.91 0.12 366.08 0.48 365.25 0.83 363.98 1.44L363.98 1.44Q363.54 1.66 363.3 1.66L363.3 1.66Q362.91 1.66 362.71 1.37 362.52 1.07 362.39 0.71L362.39 0.71 358.22-14.16 352.99-3.39Q352.87-3.1 352.43-2.61 351.99-2.12 351.44-1.61 350.9-1.1 350.35-0.62 349.8-0.15 349.45 0.15L349.45 0.15Q349.14 0.42 348.78 0.68 348.43 0.95 348.06 1.17 347.7 1.39 347.37 1.53 347.04 1.66 346.74 1.66L346.74 1.66Q346.11 1.66 345.91 0.95L345.91 0.95 336.44-32.45Q336.39-32.64 336.33-32.84 336.27-33.03 336.27-33.2L336.27-33.2Q336.27-33.81 336.56-34.23 336.86-34.64 337.59-34.94 338.32-35.23 339.54-35.41 340.76-35.6 342.64-35.72L342.64-35.72Q343.52-35.84 344.12-35.89 344.72-35.94 345.13-35.94L345.13-35.94Q345.84-35.94 346.06-35.72 346.28-35.5 346.45-34.99L346.45-34.99 351.48-15.63 355.66-22.8 353.97-30.15Q353.82-30.74 353.85-31.03L353.85-31.03Q353.85-31.59 354.14-31.93 354.44-32.28 355.12-32.5 355.8-32.71 356.91-32.89 358.02-33.06 359.64-33.28L359.64-33.28Q360.34-33.37 360.86-33.42 361.37-33.47 361.74-33.47L361.74-33.47Q362.47-33.47 362.74-33.25 363-33.03 363.13-32.54L363.13-32.54 366.45-17.5ZM393.47-27.25L393.47-27.25Q395.79-27.25 397.68-26.38 399.57-25.51 400.93-24.13 402.28-22.75 403.02-21.04 403.75-19.34 403.75-17.63L403.75-17.63Q403.75-16.11 402.82-14.59 401.89-13.06 400.22-11.84 398.55-10.62 396.21-9.86 393.86-9.11 391.05-9.11L391.05-9.11Q389.59-9.11 387.98-9.4L387.98-9.4Q388.08-8.35 388.59-7.59 389.1-6.84 389.88-6.35 390.66-5.86 391.65-5.63 392.64-5.4 393.69-5.4L393.69-5.4Q394.86-5.4 395.95-5.6 397.04-5.81 398.04-6.15 399.04-6.49 399.97-6.91 400.89-7.32 401.72-7.74L401.72-7.74Q401.94-7.79 402.1-7.82 402.26-7.86 402.41-7.86L402.41-7.86Q402.41-7.86 402.39-7.47 402.38-7.08 402.38-6.37 402.38-5.66 402.37-4.66 402.36-3.66 402.33-2.44L402.33-2.44Q402.41-2.32 402.43-2.2 402.46-2.08 402.46-2L402.46-2Q402.46-1.71 401.92-1.37 401.38-1.03 400.51-0.66 399.65-0.29 398.54 0.05 397.43 0.39 396.28 0.67 395.13 0.95 394.06 1.11 392.98 1.27 392.18 1.27L392.18 1.27Q389.54 1.27 387.06 0.35 384.58-0.56 382.67-2.27 380.75-3.98 379.6-6.42 378.46-8.86 378.46-11.91L378.46-11.91Q378.46-15.11 379.55-17.91 380.65-20.7 382.64-22.78 384.63-24.85 387.39-26.05 390.15-27.25 393.47-27.25ZM393.18-20.75L393.18-20.75Q392.18-20.75 391.33-20.32 390.49-19.9 389.8-19.1 389.1-18.31 388.59-17.2 388.08-16.09 387.76-14.75L387.76-14.75Q390.27-15.19 391.93-15.67 393.59-16.16 394.59-16.66 395.59-17.16 396.01-17.66 396.42-18.16 396.42-18.63L396.42-18.63Q396.42-19.07 396.1-19.46 395.77-19.85 395.28-20.14 394.79-20.43 394.22-20.59 393.64-20.75 393.18-20.75ZM417.91-17.43L417.1-7.96Q417.35-7.47 417.8-6.97 418.25-6.47 418.85-6.05 419.44-5.64 420.15-5.38 420.86-5.13 421.62-5.13L421.62-5.13Q422.67-5.13 423.6-5.94 424.52-6.76 425.22-8.14 425.91-9.52 426.31-11.29 426.7-13.06 426.7-14.97L426.7-14.97Q426.7-16.14 426.49-17.19 426.28-18.24 425.84-19.02 425.4-19.8 424.71-20.26 424.01-20.73 423.03-20.73L423.03-20.73Q421.45-20.73 420.13-19.8 418.81-18.87 417.91-17.43L417.91-17.43ZM408.02 1.2L408.02 1.2Q407.68 1.27 407.48 1.27L407.48 1.27Q406.7 1.27 406.7 0.34L406.7 0.34Q406.7 0.22 406.71 0.1 406.73-0.02 406.75-0.17L406.75-0.17 409.58-34.72Q409.58-34.79 409.59-34.86 409.61-34.94 409.61-34.99L409.61-34.99Q409.61-35.08 409.59-35.16 409.58-35.23 409.58-35.28L409.58-35.28Q409.58-35.5 409.74-35.63 409.9-35.77 410.56-35.94L410.56-35.94 417.42-37.57Q417.69-37.62 418.13-37.79 418.57-37.96 418.98-37.96L418.98-37.96Q419.3-37.96 419.58-37.82 419.86-37.67 419.86-37.26L419.86-37.26Q419.86-37.21 419.85-37.16 419.84-37.11 419.84-37.06L419.84-37.06Q419.81-36.94 419.71-35.99 419.62-35.03 419.49-33.68 419.37-32.32 419.23-30.77 419.08-29.22 418.96-27.87 418.83-26.51 418.74-25.56 418.64-24.61 418.61-24.49L418.61-24.49Q420.4-25.66 422.3-26.45 424.21-27.25 426.11-27.25L426.11-27.25Q428.62-27.25 430.46-26.21 432.29-25.17 433.48-23.45 434.68-21.73 435.25-19.48 435.83-17.24 435.83-14.84L435.83-14.84Q435.83-12.92 435.47-10.97 435.12-9.03 434.45-7.25 433.78-5.47 432.76-3.91 431.75-2.34 430.44-1.2 429.14-0.05 427.53 0.61 425.91 1.27 424.03 1.27L424.03 1.27Q421.76 1.27 419.88 0.27 418-0.73 416.39-2.32L416.39-2.32Q416.34-1.73 416.32-1.39 416.3-1.05 416.16-0.87 416.03-0.68 415.76-0.57 415.49-0.46 414.95-0.34L414.95-0.34Q414.68-0.27 414.01-0.11 413.34 0.05 412.4 0.26 411.46 0.46 410.33 0.71 409.19 0.95 408.02 1.2Z" opacity="1" transform="matrix(1,0,0,1,0,0)" fill="#3f3f3f" class="undefined-text-1" data-fill-palette-color="secondary" id="text-1"></path></svg></g></svg></g></svg></g></svg></g><g transform="matrix(1,0,0,1,417.04103907915345,0)"><svg viewBox="0 0 89.35756016454054 103.18001630519247" height="103.18001630519247" width="89.35756016454054"><g><svg xmlns:x="http://ns.adobe.com/Extensibility/1.0/" xmlns:i="http://ns.adobe.com/AdobeIllustrator/10.0/" xmlns:graph="http://ns.adobe.com/Graphs/1.0/" xmlns="http://www.w3.org/2000/svg" xmlns:xlink="http://www.w3.org/1999/xlink" version="1.0" x="0" y="0" viewBox="12.130000114440918 6.271999835968018 75.73999786376953 87.45599365234375" enable-background="new 0 0 100 100" xml:space="preserve" height="103.18001630519247" width="89.35756016454054" class="icon-icon-0" data-fill-palette-color="accent" id="icon-0"><g fill="#4b0183" data-fill-palette-color="accent"><path d="M50 6.272L12.13 28.137v43.728L50 93.728l37.87-21.863V28.137L50 6.272zM78.438 32.691L51 16.85V9.159L84.898 28.73 78.438 32.691zM50 59.352l-7.21-4.162v-8.326L50 42.701l7.209 4.162v8.326L50 59.352zM49 40.968l-6.67 3.851-7.902-4.675L49 31.731V40.968zM40.79 46.232v8.625l-8 4.451v-17.81L40.79 46.232zM41.498 56.753L49 61.083v9.238l-15.65-9.035L41.498 56.753zM51 61.083l7.502-4.331 8.148 4.534L51 70.321V61.083zM59.209 54.855v-8.73l0.314 0.513 7.687-4.714v17.383L59.209 54.855zM58.479 44.934l0.335 0.547L51 40.969v-9.237l14.94 8.625L58.479 44.934zM49 29.422l-16.547 9.553-8.779-5.194L49 19.159V29.422zM30.79 40.315v20.107l-8 4.451V35.582L30.79 40.315zM31.313 62.42L49 72.63v8.212L24.071 66.449 31.313 62.42zM51 72.63l17.687-10.211 7.243 4.03L51 80.842V72.63zM69.21 60.421V40.698l8-4.907v29.081L69.21 60.421zM67.879 39.168L51 29.423V19.159l25.5 14.722L67.879 39.168zM49 16.849L21.699 32.612l-6.579-3.893L49 9.159V16.849zM20.79 34.398v31.588l-6.66 3.705V30.458L20.79 34.398zM22.034 67.583L49 83.15v7.691L15.251 71.357 22.034 67.583zM51 83.15l26.966-15.568 6.783 3.775L51 90.842V83.15zM79.21 65.985V34.564l6.66-4.085v39.212L79.21 65.985z" fill="#4b0183" data-fill-palette-color="accent"></path></g></svg></g></svg></g></svg></g><defs></defs></svg><rect width="395.5199999999999" height="80.58821669329076" fill="none" stroke="none" visibility="hidden"></rect></g></svg></g></svg>